<svg width="93" height="94" viewBox="0 0 93 94" fill="none" xmlns="http://www.w3.org/2000/svg">
<path d="M43.5418 2.48351L43.5418 24.6561L4.37704 24.6561C3.80857 24.6557 3.2456 24.767 2.7203 24.9837C2.195 25.2003 1.71766 25.518 1.31556 25.9186C0.913466 26.3192 0.594489 26.7948 0.37686 27.3184C0.159232 27.8419 0.0472095 28.4031 0.0472095 28.9698L0.0472079 65.3853C0.0472078 66.5301 0.503385 67.628 1.31539 68.4376C2.12739 69.2471 3.22869 69.7018 4.37703 69.7018L43.5418 69.7018L43.5418 91.8801C43.5411 92.1731 43.627 92.4598 43.7887 92.7045C43.9504 92.9491 44.1808 93.1409 44.4511 93.2559C44.7215 93.3708 45.0198 93.4038 45.3088 93.3508C45.5979 93.2978 45.8649 93.1611 46.0765 92.9578L92.2737 48.797C92.2979 48.7757 92.3207 48.753 92.342 48.7289C92.7352 48.3114 92.9541 47.7602 92.9541 47.1875C92.9541 46.6148 92.7352 46.0636 92.342 45.6461L92.2879 45.5894L46.0765 1.40013C45.8641 1.19782 45.5967 1.0622 45.3075 1.01014C45.0184 0.958066 44.7203 0.991826 44.4503 1.10724C44.1802 1.22266 43.9501 1.41465 43.7886 1.65934C43.6271 1.90402 43.5413 2.1906 43.5418 2.48351Z" fill="#EE312F"/>
</svg>
