<svg xmlns="http://www.w3.org/2000/svg" xmlns:xlink="http://www.w3.org/1999/xlink" width="713" height="876" fill="none" xmlns:v="https://vecta.io/nano"><path d="M24.738 822.44c13.079 0 17.64 6.038 17.64 16.002v7.608c0 9.993-4.561 16.001-17.64 16.001H16.13v13.164H0V822.44h24.738zm-8.609 26.387h5.83c3.262 0 4.289-1.268 4.289-3.894v-5.465c0-2.596-1.027-3.864-4.289-3.864h-5.83v13.223zm47.967 9.752v-19.503c0-10.145 6.615-17.421 21.385-17.421s21.386 7.276 21.386 17.421v19.503c0 10.145-6.615 17.421-21.386 17.421s-21.385-7.276-21.385-17.421zm26.49-19.503c0-2.597-1.51-4.257-5.105-4.257s-5.105 1.66-5.105 4.257v19.503c0 2.597 1.51 4.257 5.105 4.257s5.105-1.66 5.105-4.257v-19.503zm39.298-16.636h16.129v52.775h-16.129V822.44zm40.173 0h17.398l13.985 26.297V822.44h15.405v52.775h-17.338l-14.045-26.388v26.297h-15.405V822.44zm81.192 13.164h-12.626V822.44h41.654v13.164H267.5v39.611h-16.1l-.151-39.611zm82.522 22.975v-19.503c0-10.145 6.614-17.421 21.385-17.421s21.385 7.276 21.385 17.421v19.503c0 10.145-6.615 17.421-21.385 17.421s-21.385-7.276-21.385-17.421zm26.49-19.503c0-2.597-1.511-4.257-5.105-4.257s-5.105 1.66-5.105 4.257v19.503c0 2.597 1.51 4.257 5.105 4.257s5.105-1.66 5.105-4.257v-19.503zm39.176 36.139V822.44h36.005v12.922h-19.875v8.091h18.123v12.892h-18.123v18.87h-16.13zm89.892-2.053l2.627-12.228c5.028 1.512 10.246 2.295 15.496 2.325 4.138 0 5.346-.634 5.346-3.412s-.423-3.26-7.189-4.287c-12.867-1.992-15.978-4.196-15.978-16.726 0-13.224 5.437-17.179 19.875-17.179a58.02 58.02 0 0 1 16.281 1.993l-1.662 12.499c-4.512-1.022-9.117-1.578-13.743-1.66-3.897 0-4.622.543-4.622 2.868s.151 2.838 6.857 4.106c13.834 2.626 16.281 5.464 16.281 17.179 0 12.076-5.739 17.36-20.329 17.36-6.517-.008-12.998-.964-19.24-2.838zm108.92 2.053h-16.854l-1.813-8.635H565.99l-1.812 8.635h-16.855l14.861-52.775h21.144l14.921 52.775zm-29.541-21.466h8.216l-4.077-19.263-4.139 19.263zm50.686-31.309h16.129v39.611h18.999v13.164h-35.128V822.44zm57.209 0h36.246v12.922h-20.026v6.25h18.365v12.922h-18.365v7.759h20.026v12.922h-36.246V822.44z" fill="#010101"/><path d="M87.596 764.804a8.43 8.43 0 0 1-5.948-2.456 8.42 8.42 0 0 1-2.479-5.937V639.147c-.016-4.97-2.002-9.731-5.524-13.24a18.79 18.79 0 0 0-13.264-5.479c-3.915.016-7.666 1.576-10.437 4.34a14.85 14.85 0 0 0-4.363 10.424v121.219a8.45 8.45 0 0 1-2.488 5.928c-1.578 1.572-3.712 2.458-5.94 2.465H8.458a8.43 8.43 0 0 1-5.948-2.456 8.42 8.42 0 0 1-2.479-5.937V389.01a12.98 12.98 0 0 1 3.815-9.131c2.428-2.42 5.714-3.783 9.143-3.791a12.87 12.87 0 0 1 7.28 2.324l68.083 46.767c30.055 20.5 35.945 26.297 35.945 47.008v86.077c0 16.635-4.38 27.172-13.834 33.21a8.8 8.8 0 0 0-3.091 3.393c-.711 1.385-1.041 2.933-.957 4.487a8.63 8.63 0 0 0 1.375 4.312c.833 1.29 1.996 2.334 3.367 3.025 9.485 4.74 13.532 13.164 13.532 28.169v121.581a8.42 8.42 0 0 1-2.468 5.926c-1.573 1.573-3.704 2.46-5.929 2.468l-28.695-.031zM63.13 457.484c-4.615-.024-9.051 1.779-12.34 5.015s-5.161 7.642-5.209 12.255v89.729a15.75 15.75 0 0 0 1.254 6.276 15.76 15.76 0 0 0 3.647 5.261c1.563 1.485 3.414 2.635 5.439 3.377s4.181 1.061 6.334.937a17.38 17.38 0 0 0 11.116-3.835c1.739-1.454 3.128-3.281 4.064-5.346a15.09 15.09 0 0 0 1.342-6.579V470.98a10.81 10.81 0 0 0-1.661-5.405c-1.391-2.484-3.428-4.547-5.895-5.971a15.83 15.83 0 0 0-8.121-2.12h.03z" fill="url(#A)"/><path d="M210.472 767.31c-31.746 0-46.517-14.733-46.517-46.374v-185.92c.016-4.233.867-8.421 2.503-12.326s4.026-7.448 7.033-10.428a32.22 32.22 0 0 1 10.492-6.942c3.92-1.603 8.118-2.418 12.353-2.398a31.88 31.88 0 0 1 18.123 5.676l48.631 33.211a67.92 67.92 0 0 1 21.772 24.377 67.87 67.87 0 0 1 7.859 31.719V716.89a50.39 50.39 0 0 1-3.854 19.33c-2.544 6.127-6.274 11.692-10.974 16.376a50.44 50.44 0 0 1-16.416 10.92c-6.137 2.525-12.713 3.814-19.35 3.794h-31.655zm10.602-207.416c-6.706 0-11.569 5.887-11.569 14.009v137.16a18.78 18.78 0 0 0 5.757 12.79 18.79 18.79 0 0 0 13.016 5.237c4.852 0 9.517-1.877 13.016-5.237a18.78 18.78 0 0 0 5.757-12.79V585.919c0-7.155-1.692-12.68-10.119-18.115l-10.27-6.582-.332-.151a12.76 12.76 0 0 0-5.256-1.177z" fill="url(#B)"/><path d="M424.749 764.955a9.32 9.32 0 0 1-3.886-.845 9.33 9.33 0 0 1-3.182-2.385l-27.185-39.914c-5.588-8.574-20.328-4.468-19.875 6.039l.181 27.746c.016 1.233-.212 2.456-.672 3.6s-1.143 2.185-2.008 3.064a9.35 9.35 0 0 1-3.032 2.056c-1.137.478-2.358.726-3.591.73h-19.271a9.34 9.34 0 0 1-6.579-2.711 9.33 9.33 0 0 1-2.755-6.558l-.634-165.782a10.29 10.29 0 0 1 2.149-6.325c1.399-1.811 3.363-3.105 5.58-3.676s4.561-.388 6.662.521 3.84 2.492 4.941 4.498l53.735 97.942a9.06 9.06 0 0 0 4.44 3.129 9.07 9.07 0 0 0 5.434.029c1.771-.547 3.332-1.623 4.472-3.084s1.805-3.236 1.905-5.086l-.846-111.981c-.031-1.524.324-3.032 1.031-4.383a9.07 9.07 0 0 1 3.016-3.346l25.675-17.541c.769-.526 1.666-.833 2.596-.888a5.14 5.14 0 0 1 2.682.575 5.13 5.13 0 0 1 2.004 1.873c.485.794.746 1.706.753 2.637v210.767a9.3 9.3 0 0 1-2.725 6.576c-1.745 1.744-4.111 2.723-6.579 2.723h-24.436z" fill="url(#C)"/><path d="M675.666 764.955c-2.14-.02-4.209-.775-5.858-2.138s-2.781-3.252-3.203-5.349l-22.02-110.924a9.84 9.84 0 0 0-3.429-5.872 9.85 9.85 0 0 0-6.418-2.25 10.39 10.39 0 0 0-7.31 3.02 9.9 9.9 0 0 0-2.839 7.155l.725 106.908a9.34 9.34 0 0 1-2.713 6.606c-.864.869-1.89 1.56-3.021 2.032a9.33 9.33 0 0 1-3.57.722h-19.301c-2.47 0-4.84-.979-6.589-2.722s-2.737-4.108-2.745-6.577V456.669a9.27 9.27 0 0 1 1.085-4.341c.711-1.337 1.739-2.479 2.993-3.328l21.627-14.643a4.99 4.99 0 0 1 2.87-.905 5.1 5.1 0 0 1 3.112 1.032 5.11 5.11 0 0 1 1.842 2.711l35.098 124.148a9.84 9.84 0 0 0 3.568 5.334 9.85 9.85 0 0 0 6.098 2.003c1.353 0 2.692-.266 3.941-.784s2.384-1.278 3.339-2.235c.929-.937 1.661-2.05 2.154-3.274a9.9 9.9 0 0 0 .715-3.852l-.906-162.038a9.29 9.29 0 0 1 1.081-4.356c.711-1.342 1.74-2.49 2.997-3.343l25.825-17.662a5.11 5.11 0 0 1 3.021-.906c1.365 0 2.674.54 3.642 1.502s1.515 2.267 1.523 3.631v380.293c0 2.467-.98 4.832-2.725 6.576s-4.111 2.723-6.578 2.723h-28.031z" fill="url(#D)"/><path d="M510.472 764.955a10.24 10.24 0 0 1-7.24-2.997c-1.921-1.92-3-4.523-3-7.238V514.274a10.22 10.22 0 0 1 1.177-4.761c.774-1.467 1.894-2.724 3.264-3.662l32.289-22.04c.886-.624 1.937-.971 3.021-.996a5.65 5.65 0 0 1 3.983 1.643 5.64 5.64 0 0 1 1.665 3.973V754.72c0 2.715-1.079 5.318-2.999 7.238s-4.525 2.997-7.24 2.997h-24.92z" fill="url(#E)"/><path d="M649.055 295.748L518.9 206.833a8.56 8.56 0 0 0-4.327-1.481c-1.55-.092-3.096.24-4.472.96a8.54 8.54 0 0 0-4.582 7.526 36.93 36.93 0 0 0 4.228 15.151 36.95 36.95 0 0 0 10.15 12.021l5.678 3.986c3.775 2.577 6.864 6.035 8.999 10.076s3.25 8.541 3.25 13.111a28.07 28.07 0 0 1-3.25 13.11 28.09 28.09 0 0 1-8.999 10.077L408.257 371.8a89.09 89.09 0 0 1-37.032 14.673v-41.845c.057-3.404-1.144-6.709-3.373-9.283a13.84 13.84 0 0 0-8.709-4.666 13.49 13.49 0 0 0-5.543.61c-1.785.588-3.427 1.542-4.82 2.802s-2.509 2.796-3.273 4.512-1.161 3.573-1.165 5.451v42.601c-13.527-2.004-26.414-7.086-37.666-14.855l-116.804-80.491a28.07 28.07 0 0 1-8.999-10.076c-2.135-4.041-3.25-8.541-3.25-13.111a28.06 28.06 0 0 1 3.25-13.11 28.08 28.08 0 0 1 8.999-10.077l5.769-3.925c4.198-3.238 7.652-7.34 10.128-12.028a36.98 36.98 0 0 0 4.219-15.144c-.011-1.547-.443-3.063-1.248-4.384a8.55 8.55 0 0 0-3.327-3.118c-1.37-.719-2.911-1.053-4.456-.965a8.56 8.56 0 0 0-4.319 1.462L66.452 295.748c-3.775 2.577-6.864 6.036-8.999 10.076a28.07 28.07 0 0 0 0 26.221 28.08 28.08 0 0 0 8.999 10.077l275.383 188.094c4.686 3.215 10.235 4.936 15.919 4.936a28.13 28.13 0 0 0 15.918-4.936l275.383-188.094a28.09 28.09 0 0 0 8.999-10.077 28.07 28.07 0 0 0 3.25-13.11c0-4.57-1.116-9.07-3.25-13.111s-5.224-7.499-8.999-10.076zM307.341 437.135a27.72 27.72 0 0 1-8.065 8.755 28.28 28.28 0 0 1-15.934 4.916c-5.684 0-11.237-1.713-15.933-4.916L114.116 341.186a26.97 26.97 0 0 1-8.848-10.038c-2.059-4.036-3.068-8.525-2.932-13.054a26.95 26.95 0 0 1 13.14-22.346l1.54-.906a28.13 28.13 0 0 1 15.235-3.947c5.351.16 10.544 1.844 14.971 4.853l151.933 103.768a28.38 28.38 0 0 1 11.383 17.235 28.37 28.37 0 0 1-3.318 20.384h.121zm66.452 59.598a28.25 28.25 0 0 1-31.837 0c-3.775-2.577-6.864-6.036-8.999-10.076a28.08 28.08 0 0 1 0-26.222c2.135-4.04 5.224-7.499 8.999-10.076a28.25 28.25 0 0 1 31.837 0 28.09 28.09 0 0 1 8.972 10.1c2.124 4.046 3.228 8.549 3.216 13.119a28.06 28.06 0 0 1-3.284 13.102 28.08 28.08 0 0 1-9.025 10.053h.121zm226.541-154.702l-152.085 103.89a28.28 28.28 0 0 1-15.933 4.915c-5.685 0-11.238-1.713-15.934-4.915a27.4 27.4 0 0 1-8.064-8.756 28.37 28.37 0 0 1-3.319-20.384c1.495-6.97 5.558-13.122 11.383-17.235l151.843-103.708c4.713-3.202 10.28-4.914 15.979-4.914s11.266 1.712 15.979 4.914a27.99 27.99 0 0 1 8.946 10.047c2.121 4.026 3.228 8.508 3.225 13.058a27.98 27.98 0 0 1-3.242 13.054 27.99 27.99 0 0 1-8.959 10.034h.181zm84.756-199.687H499.538a29.88 29.88 0 0 0-13.244 3.098c-4.118 2.037-7.71 4.996-10.498 8.647l-37.998 49.997c-3.548 4.69-8.136 8.494-13.404 11.114s-11.07 3.982-16.952 3.982h-36.247V157.44c15.98 1.72 31.477 6.507 45.64 14.1a14.6 14.6 0 0 0 9.227 1.862c3.196-.415 6.166-1.877 8.444-4.157a13.8 13.8 0 0 0 3.077-5.338 13.79 13.79 0 0 0 .446-6.145c-.317-2.056-1.094-4.014-2.274-5.727a13.81 13.81 0 0 0-4.542-4.166 153.39 153.39 0 0 0-28.695-12.076 75.3 75.3 0 0 0 26.954-37.737 75.26 75.26 0 0 0-.275-46.366 75.29 75.29 0 0 0-27.399-37.414 75.36 75.36 0 0 0-88.27 0c-12.843 9.28-22.431 22.373-27.399 37.414a75.26 75.26 0 0 0-.275 46.366 75.3 75.3 0 0 0 26.954 37.737 151.84 151.84 0 0 0-27.487 11.412c-3.279 1.632-5.812 4.451-7.086 7.883a14.4 14.4 0 0 0 .229 10.594 13.85 13.85 0 0 0 3.398 4.517c1.431 1.256 3.106 2.204 4.92 2.785s3.728.781 5.623.59a13.87 13.87 0 0 0 5.391-1.702c14.42-7.81 30.235-12.714 46.546-14.432v61.772h-36.246c-5.882-.007-11.683-1.373-16.949-3.992s-9.854-6.419-13.408-11.104l-37.998-49.997c-2.784-3.664-6.379-6.633-10.504-8.676a29.82 29.82 0 0 0-13.268-3.099H30.417a6.05 6.05 0 0 0-4.347 1.587c-1.181 1.085-1.883 2.594-1.951 4.195s.503 3.164 1.588 4.345a6.05 6.05 0 0 0 4.197 1.95l164.046 12.227a29.76 29.76 0 0 1 12.031 3.718 29.75 29.75 0 0 1 9.415 8.359l41.351 55.794a38.12 38.12 0 0 0 13.485 11.335 38.14 38.14 0 0 0 17.144 4.063h56.967v4.951c0 3.572 1.42 6.997 3.946 9.522s5.953 3.944 9.526 3.944 6.999-1.419 9.526-3.944a13.46 13.46 0 0 0 3.946-9.522v-4.951h56.937a38.07 38.07 0 0 0 17.147-4.057c5.319-2.674 9.937-6.558 13.481-11.341l41.321-55.703c2.509-3.423 5.72-6.272 9.418-8.354a29.82 29.82 0 0 1 12.028-3.723l164.046-12.107a6.15 6.15 0 0 0 3.857-10.691 6.16 6.16 0 0 0-4.431-1.597zm-327.306-19.111c-9.435-.018-18.654-2.831-26.49-8.083a47.71 47.71 0 0 1-17.537-21.427c-3.599-8.718-4.531-18.307-2.679-27.554a47.7 47.7 0 0 1 13.082-24.401 47.73 47.73 0 0 1 24.437-13.03 47.75 47.75 0 0 1 27.562 2.73 47.72 47.72 0 0 1 21.403 17.57 47.69 47.69 0 0 1 8.037 26.493 47.74 47.74 0 0 1-3.623 18.304 47.77 47.77 0 0 1-10.362 15.52 47.8 47.8 0 0 1-15.52 10.367 47.81 47.81 0 0 1-18.31 3.633v-.121z" fill="#000"/><path d="M314.137 324.068c9.883-8.607 22.449-13.516 35.552-13.889h6.887c16.794 0 32.652 4.167 44.825 14.009 4.04 3.182 8.702 5.484 13.685 6.758a36.9 36.9 0 0 0 15.251.639c23.077-3.019 37.938-26.75 36.096-49.665a12.38 12.38 0 0 0-5.152-8.731 12.38 12.38 0 0 0-9.951-1.957l-56.484 11.775c-7.311 1.534-14.761 2.303-22.231 2.295h-29.934a108.26 108.26 0 0 1-22.261-2.295l-56.485-11.775c-1.703-.399-3.471-.432-5.188-.097a12.36 12.36 0 0 0-4.771 2.041 12.35 12.35 0 0 0-3.511 3.82 12.34 12.34 0 0 0-1.632 4.924c-1.873 22.915 13.018 46.706 36.095 49.665a36.86 36.86 0 0 0 15.409-.635 36.87 36.87 0 0 0 13.8-6.882z" fill="url(#F)"/><path d="M357.754 102.371c14.797 0 26.792-11.963 26.792-26.72s-11.995-26.72-26.792-26.72-26.793 11.963-26.793 26.72 11.996 26.72 26.793 26.72z" fill="url(#G)"/><defs><linearGradient id="A" x1="62.344" y1="764.804" x2="62.344" y2="376.088" xlink:href="#H"><stop stop-color="#9c0a0e"/><stop offset=".3" stop-color="#c41d1e"/><stop offset=".57" stop-color="#e22c2a"/><stop offset=".72" stop-color="#ee312f"/></linearGradient><linearGradient id="B" x1="41056.2" y1="124501" x2="41056.2" y2="101349" xlink:href="#H"><stop stop-color="#9c0a0e"/><stop offset=".3" stop-color="#c41d1e"/><stop offset=".57" stop-color="#e22c2a"/><stop offset=".72" stop-color="#ee312f"/></linearGradient><linearGradient id="C" x1="47404.2" y1="106007" x2="47404.2" y2="89207.4" xlink:href="#H"><stop stop-color="#9c0a0e"/><stop offset=".3" stop-color="#c41d1e"/><stop offset=".57" stop-color="#e22c2a"/><stop offset=".72" stop-color="#ee312f"/></linearGradient><linearGradient id="D" x1="58026.7" y1="185189" x2="58026.7" y2="133598" xlink:href="#H"><stop stop-color="#9c0a0e"/><stop offset=".3" stop-color="#c41d1e"/><stop offset=".57" stop-color="#e22c2a"/><stop offset=".72" stop-color="#ee312f"/></linearGradient><linearGradient id="E" x1="19346.7" y1="132587" x2="19346.7" y2="106221" xlink:href="#H"><stop stop-color="#9c0a0e"/><stop offset=".3" stop-color="#c41d1e"/><stop offset=".57" stop-color="#e22c2a"/><stop offset=".72" stop-color="#ee312f"/></linearGradient><linearGradient id="F" x1="357.754" y1="331.978" x2="357.754" y2="270.96" xlink:href="#H"><stop offset=".3" stop-color="#ee312f"/><stop offset=".42" stop-color="#e92e2d"/><stop offset=".58" stop-color="#d92727"/><stop offset=".75" stop-color="#c01b1c"/><stop offset=".93" stop-color="#9c0a0e"/></linearGradient><linearGradient id="G" x1="19644.9" y1="13343" x2="19644.9" y2="12396.6" xlink:href="#H"><stop offset=".3" stop-color="#ee312f"/><stop offset=".42" stop-color="#e92e2d"/><stop offset=".58" stop-color="#d92727"/><stop offset=".75" stop-color="#c01b1c"/><stop offset=".93" stop-color="#9c0a0e"/></linearGradient><linearGradient id="H" gradientUnits="userSpaceOnUse"/></defs></svg>