<svg xmlns="http://www.w3.org/2000/svg" width="121" height="42" fill="none" viewBox="0 0 121 42">
    <path fill="#fff" d="M103.788 13.97h-4.179l.662 1.553-6.49 15.935L87.08 13.97h-4.189l.686 1.552-6.933 16.987h3.773l1.236-3.238h7.156l1.194 3.238h7.146l1.218-3.238h7.153l1.177 3.238h4.196l-7.105-18.54zm-21.22 12.792l2.79-7.242 2.477 7.242h-5.266zm16.725 0l2.773-7.242 2.483 7.242h-5.256zM76.015 27.314c0 3.228-2.871 5.568-6.827 5.577-4.161 0-5.55-.655-5.55-.655l-.344-3.574c1.73.94 3.706 1.43 5.716 1.42.947 0 3.087-.614 3.087-2.38 0-1.673-1.677-2.205-2.089-2.4-.827-.407-1.815-.81-2.631-1.181-1.54-.693-3.798-2.019-3.798-4.837 0-4.06 3.966-5.543 7.115-5.543 1.644.036 3.261.384 4.752 1.02v3.332c-.707-.384-1.87-1.574-4.752-1.574-1.969 0-3.3.945-3.3 2.296 0 1.26 1.115 2.056 2.192 2.519 1.077.463 1.794.771 3.033 1.326 1.55.711 3.396 2.179 3.396 4.654zm-18.642-1.53c0 1.49-.532 4.273-4.224 4.216-3.355-.063-3.983-2.897-3.983-4.724V14h-3.839v11.463c0 6.4 4.261 7.46 7.822 7.46 5.27 0 7.713-3.196 7.713-7.526V14h-3.49v11.784zM36.538 32.4c.506.301 1.086.481 1.688.522.573-.033 1.122-.224 1.575-.547V29.71c-.468.289-1.013.455-1.575.482-.601-.043-1.181-.223-1.688-.523l-8.577-4.616.796 3.149 7.78 4.198zM13.38 24.168c-.511-.312-1.103-.494-1.716-.526-.572.028-1.12.22-1.567.548v2.664c.462-.294 1.006-.46 1.568-.479.613.036 1.205.22 1.715.535l6.971 3.742.604-2.406-7.575-4.078z"/>
    <path fill="#fff" d="M36.538 28.91c.507.3 1.087.48 1.688.52.571-.033 1.118-.221 1.572-.542v-2.667c-.468.288-1.013.454-1.575.482-.601-.044-1.181-.224-1.688-.523l-9.606-5.159.792 3.15 8.817 4.74zM13.38 20.678c-.512-.31-1.104-.49-1.716-.523-.572.028-1.12.22-1.567.548v2.664c.461-.295 1.005-.462 1.568-.481.612.032 1.204.214 1.715.526l7.798 4.188.604-2.41-8.402-4.512z"/>
    <path fill="#fff" d="M38.226 25.944c.57-.034 1.118-.223 1.57-.545v-2.667c-.467.288-1.011.454-1.574.481-.6-.043-1.18-.223-1.688-.522l-10.611-5.707.796 3.165 9.819 5.275c.506.3 1.087.479 1.688.52zM13.38 17.193c-.512-.31-1.104-.49-1.716-.523-.571.027-1.12.217-1.567.545v2.667c.461-.295 1.005-.463 1.568-.482.612.033 1.204.215 1.715.526l8.577 4.623.6-2.409-9.177-4.947z"/>
    <path fill="#fff" d="M36.538 21.935c.506.301 1.086.481 1.688.523.57-.034 1.118-.224 1.57-.545v-2.668c-.467.289-1.011.455-1.574.482-.6-.043-1.18-.223-1.688-.523l-8.378-4.503-.58-2.021c.002-.03.014-.06.035-.083.021-.023.05-.04.082-.047l1.42-.409c.08.002.156.032.212.084.056.053.087.123.087.196l.075.142c.052.025.265-.07.282-.079v-.793c.001-.13-.026-.26-.08-.381-.053-.121-.132-.231-.232-.324-.1-.092-.22-.166-.351-.215-.132-.05-.272-.076-.415-.075h-1.42c-.074-.138-.19-.254-.333-.333-.144-.08-.31-.12-.476-.115h-2.694c-.198 0-.392.058-.551.166-.16.108-.277.261-.334.436l-1.87 6.969-7.633-4.113c-.511-.311-1.103-.493-1.716-.526-.572.028-1.12.22-1.567.548v2.664c.462-.293 1.006-.46 1.568-.478.612.033 1.204.214 1.715.526l9.414 5.038 2.137-8.521.79 3.149 10.817 5.829z"/>
</svg>
