<svg width="69" height="46" viewBox="0 0 69 46" fill="none" xmlns="http://www.w3.org/2000/svg">
<path d="M0.84082 4.67763C0.84082 2.09424 2.93507 0 5.51845 0H64.0626C66.646 0 68.7403 2.09425 68.7403 4.67763V40.958C68.7403 43.5414 66.646 45.6356 64.0626 45.6356H5.51845C2.93507 45.6356 0.84082 43.5414 0.84082 40.958V4.67763Z" fill="#006FCF"/>
<path fill-rule="evenodd" clip-rule="evenodd" d="M14.7132 33.9418V24.3123H25.6163L26.7861 25.7383L27.9946 24.3123H67.5704V33.2777C67.5704 33.2777 66.5354 33.9322 65.3384 33.9418H43.4245L42.1056 32.4238V33.9418H37.7837V31.3506C37.7837 31.3506 37.1933 31.7123 35.9169 31.7123H34.4459V33.9418H27.9021L26.734 32.4852L25.5479 33.9418H14.7132ZM2.00977 17.0546L4.46289 11.6943H8.70533L10.0975 14.6969V11.6943H15.3712L16.2 13.8645L17.0035 11.6943H40.6771V12.7854C40.6771 12.7854 41.9216 11.6943 43.9668 11.6943L51.648 11.7195L53.0162 14.6828V11.6943H57.4295L58.6442 13.3965V11.6943H63.098V21.3238H58.6442L57.4801 19.6161V21.3238H50.9959L50.3439 19.8059H48.6007L47.9593 21.3238H43.5619C41.802 21.3238 40.6771 20.2551 40.6771 20.2551V21.3238H34.0469L32.731 19.8059V21.3238H8.07683L7.42521 19.8059H5.68761L5.04059 21.3238H2.00977V17.0546ZM2.02242 20.0917L5.33116 12.8814H7.8396L11.1452 20.0917H8.94357L8.33623 18.6479H4.78709L4.17658 20.0917H2.02242ZM7.63718 17.0824L6.55536 14.5594L5.47037 17.0824H7.63718ZM11.3728 20.0906V12.8803L14.434 12.8909L16.2145 17.5397L17.9523 12.8803H20.989V20.0906H19.0658V14.7777L17.0271 20.0906H15.3404L13.2961 14.7777V20.0906H11.3728ZM22.305 20.0906V12.8803H28.5809V14.4931H24.2485V15.7264H28.4797V17.2444H24.2485V18.5252H28.5809V20.0906H22.305ZM29.6944 20.0917V12.8814H33.9742C35.3923 12.8814 36.6629 13.7033 36.6629 15.2206C36.6629 16.5177 35.5916 17.3531 34.5531 17.4353L37.0837 20.0917H34.7334L32.4274 17.5302H31.6176V20.0917H29.6944ZM33.8161 14.4942H31.6176V16.0121H33.8446C34.23 16.0121 34.7271 15.7322 34.7271 15.2531C34.7271 14.8808 34.3435 14.4942 33.8161 14.4942ZM39.4117 20.0906H37.448V12.8803H39.4117V20.0906ZM44.068 20.0906H43.6441C41.5933 20.0906 40.3481 18.5762 40.3481 16.5151C40.3481 14.4031 41.5793 12.8803 44.1692 12.8803H46.2949V14.588H44.0915C43.0402 14.588 42.2966 15.357 42.2966 16.5329C42.2966 17.9292 43.1468 18.5157 44.3717 18.5157H44.8778L44.068 20.0906ZM44.9442 20.0917L48.2529 12.8814H50.7614L54.0669 20.0917H51.8653L51.258 18.6479H47.7088L47.0983 20.0917H44.9442ZM50.5589 17.0824L49.4771 14.5594L48.3921 17.0824H50.5589ZM54.2916 20.0906V12.8803H56.7368L59.8589 17.4104V12.8803H61.7821V20.0906H59.416L56.2148 15.4418V20.0906H54.2916ZM16.0292 32.7085V25.4982H22.305V27.1111H17.9727V28.3444H22.2038V29.8624H17.9727V31.1431H22.305V32.7085H16.0292ZM46.7808 32.7085V25.4982H53.0566V27.1111H48.7243V28.3444H52.9352V29.8624H48.7243V31.1431H53.0566V32.7085H46.7808ZM22.5485 32.7085L25.6042 29.1478L22.4758 25.4982H24.8988L26.7619 27.7544L28.6314 25.4982H30.9595L27.8722 29.1034L30.9335 32.7085H28.5109L26.7018 30.4879L24.9368 32.7085H22.5485ZM31.162 32.7097V25.4994H35.4102C37.1533 25.4994 38.1717 26.5524 38.1717 27.9245C38.1717 29.581 36.8733 30.4327 35.1603 30.4327H33.1358V32.7097H31.162ZM35.2678 27.13H33.1357V28.7903H35.2614C35.8232 28.7903 36.2167 28.4413 36.2167 27.9601C36.2167 27.4479 35.8212 27.13 35.2678 27.13ZM39.0068 32.7085V25.4982H43.2866C44.7047 25.4982 45.9754 26.3201 45.9754 27.8374C45.9754 29.1345 44.9041 29.9699 43.8655 30.0521L46.3961 32.7085H44.0458L41.7398 30.147H40.93V32.7085H39.0068ZM43.1284 27.111H40.93V28.6289H43.1569C43.5424 28.6289 44.0395 28.349 44.0395 27.8699C44.0395 27.4976 43.6558 27.111 43.1284 27.111ZM53.9474 32.7085V31.1431H57.7964C58.3659 31.1431 58.6125 30.8547 58.6125 30.5383C58.6125 30.2352 58.3667 29.9288 57.7964 29.9288H56.0571C54.5452 29.9288 53.7032 29.0654 53.7032 27.7692C53.7032 26.6131 54.4742 25.4982 56.7209 25.4982H60.4662L59.6564 27.1205H56.4172C55.798 27.1205 55.6074 27.4251 55.6074 27.7159C55.6074 28.0148 55.843 28.3444 56.316 28.3444H58.138C59.8234 28.3444 60.5547 29.2404 60.5547 30.4138C60.5547 31.6753 59.7398 32.7085 58.0463 32.7085H53.9474ZM60.7243 32.7085V31.1431H64.5733C65.1428 31.1431 65.3894 30.8547 65.3894 30.5383C65.3894 30.2352 65.1436 29.9288 64.5733 29.9288H62.834C61.3221 29.9288 60.4801 29.0654 60.4801 27.7692C60.4801 26.6131 61.2512 25.4982 63.4978 25.4982H67.2431L66.4333 27.1205H63.1941C62.575 27.1205 62.3843 27.4251 62.3843 27.7159C62.3843 28.0148 62.6199 28.3444 63.0929 28.3444H64.9149C66.6003 28.3444 67.3316 29.2404 67.3316 30.4138C67.3316 31.6753 66.5167 32.7085 64.8232 32.7085H60.7243Z" fill="white"/>
<path d="M5.51845 1.16941H64.0626V-1.16941H5.51845V1.16941ZM67.5708 4.67763V40.958H69.9097V4.67763H67.5708ZM64.0626 44.4662H5.51845V46.805H64.0626V44.4662ZM2.01023 40.958V4.67763H-0.328587V40.958H2.01023ZM5.51845 44.4662C3.58091 44.4662 2.01023 42.8955 2.01023 40.958H-0.328587C-0.328587 44.1872 2.28922 46.805 5.51845 46.805V44.4662ZM67.5708 40.958C67.5708 42.8955 66.0002 44.4662 64.0626 44.4662V46.805C67.2919 46.805 69.9097 44.1872 69.9097 40.958H67.5708ZM64.0626 1.16941C66.0002 1.16941 67.5708 2.74009 67.5708 4.67763H69.9097C69.9097 1.4484 67.2919 -1.16941 64.0626 -1.16941V1.16941ZM5.51845 -1.16941C2.28922 -1.16941 -0.328587 1.4484 -0.328587 4.67763H2.01023C2.01023 2.74009 3.58091 1.16941 5.51845 1.16941V-1.16941Z" fill="#F3F3F3"/>
</svg>